<svg width="22" height="42" viewBox="0 0 22 42" fill="none" xmlns="http://www.w3.org/2000/svg">
<path d="M21.6263 20.2518L1.69422 0.29929C1.4949 0.0997655 1.19592 0 0.996603 0C0.797282 0 0.498304 0.0997655 0.298984 0.29929C-0.0996572 0.69834 -0.0996572 1.39668 0.298984 1.79573L19.5334 21.0499L0.298984 40.304C0.0996633 40.5036 0 40.8029 0 41.0024C0 41.2019 0.0996633 41.5012 0.298984 41.7007C0.498304 41.9002 0.797282 42 0.996603 42C1.19592 42 1.59456 41.9002 1.69422 41.7007L21.6263 21.7482C22.1246 21.2494 22.1246 20.6508 21.6263 20.2518Z" fill="#151618"/>
</svg>
