<svg width="44" height="39" viewBox="0 0 44 39" fill="none" xmlns="http://www.w3.org/2000/svg">
<path d="M21.9 0C22.2 0 22.5 0.1 22.7 0.4L32.5 13H42C42.5 13 43 13.2 43.4 13.6C43.8 14 44 14.5 44 15V19C44 19.5 43.8 20 43.4 20.4C43 20.8 42.5 21 42 21H41.8L36.2 36.9C35.9 38.2 34.6 39 33.3 39H10.3C8.89999 39 7.9 38.1 7.5 37L2.10001 21.1H2C1.5 21.1 1.00001 20.9 0.600006 20.5C0.200006 20.1 0 19.5 0 19V15C0 14.5 0.200006 14 0.600006 13.6C1.00001 13.2 1.5 13 2 13H11.5L21.1 0.4C21.3 0.1 21.6 0 21.9 0ZM14 13H30L22 2.6L14 13ZM2 15V19H2.89999C3.29999 19 3.69999 19.3 3.79999 19.7L9.39999 36.3C9.59999 36.8 9.99999 37 10.4 37H33.4C33.9 37 34.3 36.7 34.3 36.4V36.3L40.1 19.7C40.2 19.3 40.6 19 41 19H41.9V15H2Z" fill="#151618"/>
</svg>
