<svg width="46" height="40" viewBox="0 0 46 40" fill="none" xmlns="http://www.w3.org/2000/svg">
<path d="M0 12.9C0 5.8 5.8 0 13 0C17 0 20.6 1.8 23 4.7C25.4 1.8 29 0 33 0C40.2 0 46 5.8 46 12.9C46 20.3 41.7 25.7 36.9 29.9C34.5 32 31.9 33.8 29.5 35.4C29.1 35.7 28.7 35.9 28.4 36.2C26.5 37.5 24.9 38.6 23.6 39.6L23 40L22.4 39.5C21.2 38.5 19.5 37.4 17.6 36.1C17.2 35.9 16.9 35.6 16.5 35.3C14.2 33.7 11.5 31.9 9.1 29.8C4.3 25.7 0 20.3 0 12.9ZM13 2C7 2 2 6.9 2 12.9C2 19.4 5.7 24.4 10.4 28.4C12.7 30.4 15.2 32.1 17.6 33.7C18 33.9 18.3 34.2 18.7 34.4C20.3 35.5 21.8 36.5 23 37.4C24.2 36.5 25.7 35.5 27.3 34.4C27.7 34.2 28 33.9 28.4 33.7C30.7 32.1 33.3 30.4 35.6 28.4C40.3 24.4 44 19.4 44 12.9C44 6.9 39 2 33 2C29.1 2 25.8 3.9 23.8 6.9L23 8.2L22.2 6.9C20.2 3.9 16.9 2 13 2Z" fill="#151618"/>
</svg>
