<svg width="34" height="45" viewBox="0 0 34 45" fill="none" xmlns="http://www.w3.org/2000/svg">
<path d="M30.1888 18.7168H7.62243V11.25C7.62243 6.17256 11.8348 1.99115 16.9499 1.99115C22.0649 1.99115 26.2773 6.17256 26.2773 11.25V12.146C26.2773 12.6438 26.6785 13.1416 27.2803 13.1416C27.882 13.1416 28.2832 12.7434 28.2832 12.146V11.25C28.2832 5.07743 23.1681 0 16.9499 0C10.7316 0 5.61653 5.07743 5.61653 11.25V18.7168H3.81123C1.70503 18.7168 0 20.4093 0 22.5V41.2168C0 43.3075 1.70503 45 3.81123 45H30.1888C32.295 45 34 43.3075 34 41.2168V22.5C34 20.4093 32.295 18.7168 30.1888 18.7168ZM31.9941 41.2168C31.9941 42.2124 31.1918 43.0089 30.1888 43.0089H3.81123C2.80828 43.0089 2.0059 42.2124 2.0059 41.2168V22.5C2.0059 21.5044 2.80828 20.708 3.81123 20.708H30.1888C31.1918 20.708 31.9941 21.5044 31.9941 22.5V41.2168Z" fill="#151618"/>
</svg>
