<svg width="44" height="41" viewBox="0 0 44 41" fill="none" xmlns="http://www.w3.org/2000/svg">
<path d="M23.1199 0.730268L28.3098 13.8919C28.3098 13.8919 28.3099 13.8919 28.4097 13.8919L42.8814 14.6836C43.9793 14.7825 44.3785 16.069 43.58 16.7617L32.302 25.6681C32.302 25.6681 32.302 25.6681 32.302 25.767L36.0946 39.4234C36.394 40.512 35.1964 41.3037 34.2981 40.7099L22.0221 33.09C22.0221 33.09 22.0221 33.09 21.9223 33.09L9.74602 40.8089C8.84777 41.4026 7.65012 40.512 7.94954 39.5224L11.7421 25.866V25.767L0.464127 16.8607C-0.434122 16.1679 0.0648564 14.7825 1.16272 14.7825L15.6345 13.9908C15.6345 13.9908 15.6345 13.9908 15.7343 13.9908L20.9242 0.829228C21.3235 -0.259327 22.7207 -0.259327 23.1199 0.730268ZM21.9223 3.50113L17.0318 15.8711C17.0318 15.8711 17.0318 15.8711 16.932 15.8711L3.35845 16.6627C3.25864 16.6627 3.25864 16.7617 3.35845 16.7617L13.9379 25.1733C13.9379 25.1733 13.9379 25.1733 13.9379 25.2722L10.4447 38.038C10.4447 38.137 10.4446 38.137 10.5445 38.137L21.9223 30.9129C21.9223 30.9129 21.9223 30.9129 22.0221 30.9129L33.3999 38.137C33.4997 38.137 33.4997 38.137 33.4997 38.038L30.0065 25.1733V25.0743L40.5859 16.6627V16.5638L27.0124 15.8711C27.0124 15.8711 27.0124 15.8711 26.9126 15.8711L22.0221 3.50113C22.0221 3.40217 22.0221 3.40217 21.9223 3.50113Z" fill="#151618"/>
</svg>
