<svg width="43" height="29" viewBox="0 0 43 29" fill="none" xmlns="http://www.w3.org/2000/svg">
<path d="M29.03 28.7041L42.5046 15.6837C42.8018 15.3878 43 14.8946 43 14.5C43 14.0068 42.8018 13.6122 42.5046 13.3163L29.03 0.295918C28.6336 -0.0986394 27.9401 -0.0986394 27.5438 0.295918C27.3456 0.493197 27.2465 0.78912 27.2465 0.986399C27.2465 1.28232 27.3456 1.47959 27.5438 1.67687L39.7304 13.415H0.990784C0.396313 13.415 0 13.9082 0 14.4014C0 14.8946 0.495392 15.3878 0.990784 15.3878H39.7304L27.5438 27.3231C27.3456 27.5204 27.2465 27.7177 27.2465 28.0136C27.2465 28.3095 27.3456 28.5068 27.5438 28.7041C27.9401 29.0986 28.6336 29.0986 29.03 28.7041Z" fill="#151618"/>
</svg>
