<svg width="44" height="49" viewBox="0 0 44 49" fill="none" xmlns="http://www.w3.org/2000/svg">
<path d="M3.8533 12.9C3.95367 12.4 4.35514 12 4.85697 12H38.9817C39.4835 12 39.885 12.4 39.9853 12.9L44 47.9C44 48.2 43.8996 48.5 43.7993 48.7C43.5985 48.9 43.2974 49 43.0967 49H0.942672C0.641572 49 0.340459 48.9 0.240093 48.7C0.0393592 48.5 -0.0609891 48.2 0.0393776 47.9L3.8533 12.9ZM5.76026 14L1.94634 47H41.8923L38.0783 14H5.76026Z" fill="#151618"/>
<path d="M11.8827 10C11.8827 4.4 16.2988 0 21.9193 0C27.5399 0 31.956 4.4 31.956 10V18C31.956 18.6 31.5545 19 30.9523 19C30.3501 19 29.9487 18.6 29.9487 18V10C29.9487 5.6 26.3355 2 21.9193 2C17.5032 2 13.89 5.6 13.89 10V18C13.89 18.6 13.4885 19 12.8863 19C12.2841 19 11.8827 18.6 11.8827 18V10Z" fill="#151618"/>
</svg>
