<svg width="45" height="46" viewBox="0 0 45 46" fill="none" xmlns="http://www.w3.org/2000/svg">
<path d="M41.044 4.53947H37.5824V3.32895C37.5824 1.51316 36.0989 0 34.4176 0C32.7363 0 31.1538 1.51316 31.1538 3.32895V4.64035H25.7143V3.32895C25.7143 1.51316 24.2308 0 22.5494 0C20.8681 0 19.2857 1.51316 19.2857 3.32895V4.64035H13.8462V3.32895C13.8462 1.51316 12.3626 0 10.6813 0C9 0 7.41758 1.51316 7.41758 3.32895V4.64035H3.95604C1.78022 4.64035 0 6.45614 0 8.67544V38.9386C0 41.1579 1.78022 42.9737 3.95604 42.9737H28.0879C29.967 44.8904 32.4396 46 35.1099 46C40.3516 46 44.7033 41.864 45 36.5175V8.57456C45 6.35526 43.2198 4.53947 41.044 4.53947ZM1.97802 8.57456C1.97802 7.46491 2.86813 6.55702 3.95604 6.55702H7.41758V7.86842C7.41758 9.58333 8.9011 11.0965 10.6813 11.0965C12.4615 11.0965 13.8462 9.58333 13.8462 7.86842V6.55702H19.2857V7.86842C19.2857 9.68421 20.7692 11.1974 22.5494 11.1974C24.3297 11.1974 25.7143 9.58333 25.7143 7.86842V6.55702H31.1538V7.86842C31.1538 9.68421 32.6374 11.1974 34.4176 11.1974C36.1978 11.1974 37.5824 9.58333 37.5824 7.86842V6.55702H41.044C42.1319 6.55702 43.022 7.46491 43.022 8.57456V13.6184H1.97802V8.57456ZM35.6044 7.86842C35.6044 8.47369 35.011 9.07895 34.4176 9.07895C33.8242 9.07895 33.1319 8.47368 33.1319 7.76754V3.32895C33.1319 2.62281 33.7253 2.01754 34.4176 2.01754C35.1099 2.01754 35.6044 2.62281 35.6044 3.32895V7.86842ZM23.7363 7.86842C23.7363 8.47369 23.1429 9.07895 22.5494 9.07895C21.956 9.07895 21.2637 8.47368 21.2637 7.76754V3.32895C21.2637 2.62281 21.8571 2.01754 22.5494 2.01754C23.2418 2.01754 23.7363 2.62281 23.7363 3.32895V7.86842ZM11.8681 7.86842C11.8681 8.47369 11.2747 9.07895 10.6813 9.07895C10.0879 9.07895 9.3956 8.47369 9.3956 7.86842V3.32895C9.3956 2.62281 9.98901 2.01754 10.6813 2.01754C11.3736 2.01754 11.8681 2.62281 11.8681 3.32895V7.86842ZM35.1099 43.8816C30.7582 43.8816 27.1978 40.25 27.1978 35.8114C27.1978 31.3728 30.7582 27.7412 35.1099 27.7412C39.4615 27.7412 43.022 31.3728 43.022 35.8114C43.022 40.25 39.4615 43.8816 35.1099 43.8816ZM25.2198 35.8114C25.2198 37.6272 25.7143 39.3421 26.6044 40.8553H3.95604C2.86813 40.8553 1.97802 39.9474 1.97802 38.8377V15.636H43.022V29.7588C41.1429 27.2368 38.1758 25.7237 35.1099 25.7237C29.6703 25.7237 25.2198 30.2632 25.2198 35.8114Z" fill="#151618"/>
<path d="M40.5495 32.4825C40.1539 32.079 39.5604 32.079 39.1648 32.4825L33.6264 38.1316L31.1539 35.6097C30.9561 35.4079 30.7582 35.307 30.4615 35.307C30.1648 35.307 29.967 35.4079 29.7692 35.6097C29.3736 36.0132 29.3736 36.6185 29.7692 37.022L32.9341 40.25C33.1319 40.4518 33.3297 40.5527 33.6264 40.5527C33.9231 40.5527 34.1209 40.4518 34.3187 40.25L40.6484 33.7939C40.8462 33.5921 40.9451 33.3904 40.9451 33.0877C40.8462 32.886 40.7473 32.6842 40.5495 32.4825Z" fill="#151618"/>
</svg>
