<svg width="33" height="33" viewBox="0 0 33 33" fill="none" xmlns="http://www.w3.org/2000/svg">
<g clip-path="url(#clip0)">
<path d="M1.81096 32.6982L16.5 18.0091L31.189 32.6982C31.5915 33.1006 32.2957 33.1006 32.6982 32.6982C32.8994 32.497 33 32.1951 33 31.9939C33 31.7927 32.8994 31.4909 32.6982 31.2896L18.0091 16.6006L32.6982 1.91158C32.8994 1.71036 33 1.40853 33 1.20731C33 1.00609 32.8994 0.704265 32.6982 0.503046C32.2957 0.100607 31.5915 0.100607 31.189 0.503046L16.5 15.1921L1.81096 0.301829C1.40852 -0.10061 0.704256 -0.10061 0.301817 0.301829C0.100598 0.503049 0 0.804875 0 1.00609C0 1.20731 0.100598 1.50914 0.301817 1.71036L14.9909 16.3994L0.301817 31.189C0.100598 31.3902 0 31.6921 0 31.8933C0 32.0945 0.100598 32.3963 0.301817 32.5976C0.704256 33.1006 1.40852 33.1006 1.81096 32.6982Z" fill="white"/>
</g>
<defs>
<clipPath id="clip0">
<rect width="33" height="33" fill="white"/>
</clipPath>
</defs>
</svg>
