<svg width="34" height="44" viewBox="0 0 34 44" fill="none" xmlns="http://www.w3.org/2000/svg">
<path d="M19.9651 25.8239C24.4128 25.8239 27.9709 24.632 30.343 22.4469C32.8139 20.2618 34 17.0835 34 13.0113C34 8.93905 32.7151 5.76072 30.2442 3.4763C27.7733 1.19187 24.2151 0 19.7674 0H7.41279C6.62209 0 5.93023 0.69526 5.93023 1.48984V23.6388H0.988371C0.395349 23.6388 0 24.1354 0 24.6321V24.7314C0 25.3273 0.494186 25.7246 0.988371 25.7246H5.93023V29.9955H0.988371C0.395349 29.9955 0 30.4921 0 30.9887C0 31.5846 0.494186 31.9819 0.988371 31.9819H5.93023V43.0068C5.93023 43.6027 6.42441 44 6.9186 44C7.51162 44 7.90697 43.5034 7.90697 43.0068V31.9819H18.7791C19.3721 31.9819 19.7674 31.4853 19.7674 30.9887C19.7674 30.3928 19.2732 29.9955 18.7791 29.9955H7.90697V25.8239H19.9651ZM8.00584 23.6388V2.08578H19.7674C23.6221 2.08578 26.6861 3.07901 28.7616 4.96614C30.9361 6.85327 31.9244 9.53499 31.9244 13.0113C31.9244 16.2889 30.8372 18.9707 28.7616 20.7585C26.6861 22.6456 23.6221 23.5395 19.7674 23.5395H8.00584V23.6388Z" fill="#151618"/>
</svg>
