<svg width="43" height="43" viewBox="0 0 43 43" fill="none" xmlns="http://www.w3.org/2000/svg">
<path d="M42.687 41.4037L29.7213 28.4339C32.5139 25.3411 34.1097 21.2506 34.1097 17.0603C34.1097 7.68213 26.43 0 17.0549 0C7.67968 0 0 7.68213 0 17.0603C0 26.4385 7.67968 34.1206 17.0549 34.1206C21.2438 34.1206 25.2332 32.6241 28.4248 29.7309L41.3904 42.7007C41.5899 42.9002 41.7894 43 42.0886 43C42.3878 43 42.5873 42.9002 42.7867 42.7007C43.0859 42.4014 43.0859 41.8028 42.687 41.4037ZM32.115 17.0603C32.115 25.4408 25.3329 32.2251 16.9551 32.2251C8.57729 32.2251 1.79524 25.4408 1.79524 17.0603C1.79524 8.67981 8.57729 1.89559 16.9551 1.89559C25.3329 1.99536 32.115 8.77958 32.115 17.0603Z" fill="#151618"/>
</svg>
